<?xml version="1.0" encoding="UTF-8"?>
<svg xmlns="http://www.w3.org/2000/svg" xmlns:xlink="http://www.w3.org/1999/xlink" width="200px" height="200px" viewBox="0 0 200 200" version="1.1">
<g id="surface1">
<path style=" stroke:none;fill-rule:nonzero;fill:rgb(36.078431%,78.039216%,72.54902%);fill-opacity:1;" d="M 51.796875 126.328125 L 51.796875 149.082031 C 51.796875 156.855469 58.105469 163.183594 65.898438 163.183594 L 124.53125 163.183594 L 124.53125 111.71875 C 124.53125 106.855469 128.496094 102.890625 133.359375 102.890625 C 138.222656 102.890625 142.1875 106.855469 142.1875 111.71875 L 142.1875 163.164062 L 147.675781 163.164062 C 155.449219 163.164062 161.777344 156.855469 161.777344 149.0625 L 161.777344 102.304688 C 169.140625 102.304688 172.617188 93.242188 167.167969 88.300781 L 115.664062 41.679688 C 110.625 37.109375 102.929688 37.109375 97.890625 41.679688 L 46.40625 88.300781 C 40.957031 93.242188 44.453125 102.304688 51.796875 102.304688 L 51.796875 111.40625 "/>
<path style=" stroke:none;fill-rule:nonzero;fill:rgb(20%,20%,20%);fill-opacity:1;" d="M 136.835938 165.625 L 128.222656 165.625 L 128.222656 111.054688 C 128.222656 107.910156 125.664062 105.351562 122.519531 105.351562 C 119.375 105.351562 116.816406 107.910156 116.816406 111.054688 L 116.816406 165.625 L 55.058594 165.625 C 45.566406 165.625 37.832031 157.910156 37.832031 148.398438 L 37.832031 125.664062 C 37.832031 123.945312 39.238281 122.539062 40.957031 122.539062 C 42.675781 122.539062 44.082031 123.945312 44.082031 125.664062 L 44.082031 148.417969 C 44.082031 154.472656 49.003906 159.394531 55.058594 159.394531 L 110.566406 159.394531 L 110.566406 111.054688 C 110.566406 104.453125 115.917969 99.101562 122.519531 99.101562 C 129.121094 99.101562 134.472656 104.453125 134.472656 111.054688 L 134.472656 159.375 L 136.835938 159.375 C 142.890625 159.375 147.8125 154.453125 147.8125 148.398438 L 147.8125 98.515625 L 150.9375 98.515625 C 154.0625 98.515625 155.234375 96.113281 155.507812 95.371094 C 155.78125 94.628906 156.542969 92.050781 154.21875 89.960938 L 102.734375 43.339844 C 98.886719 39.84375 92.988281 39.84375 89.140625 43.339844 L 37.675781 89.960938 C 35.371094 92.050781 36.09375 94.628906 36.386719 95.371094 C 36.660156 96.113281 37.832031 98.515625 40.957031 98.515625 L 44.082031 98.515625 L 44.082031 110.742188 C 44.082031 112.460938 42.675781 113.867188 40.957031 113.867188 C 39.238281 113.867188 37.832031 112.460938 37.832031 110.742188 L 37.832031 104.335938 C 34.53125 103.398438 31.835938 100.957031 30.527344 97.636719 C 28.847656 93.300781 30 88.457031 33.457031 85.332031 L 84.960938 38.710938 C 87.96875 35.976562 91.875 34.472656 95.9375 34.472656 C 100 34.472656 103.90625 35.976562 106.914062 38.710938 L 158.398438 85.3125 C 161.855469 88.4375 162.988281 93.261719 161.328125 97.617188 C 160.039062 100.9375 157.324219 103.378906 154.023438 104.316406 L 154.023438 148.417969 C 154.042969 157.910156 146.328125 165.625 136.835938 165.625 Z M 136.835938 165.625 "/>
<path style=" stroke:none;fill-rule:nonzero;fill:rgb(98.431373%,100%,99.215686%);fill-opacity:1;" d="M 63.867188 126.015625 C 62.148438 126.015625 60.742188 124.609375 60.742188 122.890625 L 60.742188 105.039062 C 60.742188 103.320312 62.148438 101.914062 63.867188 101.914062 C 65.585938 101.914062 66.992188 103.320312 66.992188 105.039062 L 66.992188 122.890625 C 66.992188 124.609375 65.605469 126.015625 63.867188 126.015625 Z M 60.3125 130.371094 C 60.3125 132.1875 61.914062 133.671875 63.867188 133.671875 C 65.839844 133.671875 67.421875 132.1875 67.421875 130.371094 C 67.421875 128.554688 65.820312 127.070312 63.867188 127.070312 C 61.914062 127.070312 60.3125 128.554688 60.3125 130.371094 Z M 60.3125 130.371094 "/>
<path style=" stroke:none;fill-rule:nonzero;fill:rgb(36.078431%,78.039216%,72.54902%);fill-opacity:1;" d="M 42.03125 46.992188 C 42.03125 49.335938 43.925781 51.25 46.289062 51.25 C 48.632812 51.25 50.546875 49.355469 50.546875 46.992188 C 50.546875 44.648438 48.652344 42.734375 46.289062 42.734375 C 43.925781 42.753906 42.03125 44.648438 42.03125 46.992188 Z M 52.695312 39.628906 C 52.695312 41.152344 53.925781 42.402344 55.46875 42.402344 C 56.992188 42.402344 58.242188 41.171875 58.242188 39.628906 C 58.242188 38.105469 57.011719 36.855469 55.46875 36.855469 C 53.945312 36.855469 52.695312 38.105469 52.695312 39.628906 Z M 147.753906 35.351562 L 149.84375 41.777344 C 149.960938 42.109375 150.273438 42.34375 150.625 42.34375 L 157.382812 42.34375 C 158.183594 42.34375 158.515625 43.359375 157.871094 43.828125 L 152.402344 47.792969 C 152.109375 48.007812 151.992188 48.378906 152.109375 48.710938 L 154.199219 55.136719 C 154.453125 55.898438 153.574219 56.523438 152.929688 56.054688 L 147.460938 52.089844 C 147.171875 51.875 146.773438 51.875 146.484375 52.089844 L 141.015625 56.054688 C 140.371094 56.523438 139.511719 55.898438 139.746094 55.136719 L 141.835938 48.710938 C 141.953125 48.378906 141.816406 48.007812 141.542969 47.792969 L 136.074219 43.828125 C 135.429688 43.359375 135.761719 42.34375 136.5625 42.34375 L 143.320312 42.34375 C 143.671875 42.34375 143.984375 42.109375 144.101562 41.777344 L 146.191406 35.351562 C 146.445312 34.609375 147.519531 34.609375 147.753906 35.351562 Z M 147.753906 35.351562 "/>
</g>
</svg>
