<?xml version="1.0" encoding="UTF-8"?>
<svg xmlns="http://www.w3.org/2000/svg" xmlns:xlink="http://www.w3.org/1999/xlink" width="200px" height="200px" viewBox="0 0 200 200" version="1.1">
<g id="surface1">
<path style=" stroke:none;fill-rule:nonzero;fill:rgb(0%,0%,0%);fill-opacity:1;" d="M 183.386719 127.601562 L 179 127.601562 L 179 107.550781 L 136.886719 107.550781 L 136.886719 127.601562 L 129.875 127.601562 L 129.875 107.550781 L 87.75 107.550781 L 87.75 127.601562 L 60.113281 127.601562 L 63.675781 74.261719 L 43.773438 74.261719 L 47.335938 127.601562 L 17.136719 127.601562 C 14.722656 127.605469 12.769531 129.5625 12.761719 131.976562 L 12.761719 160.738281 C 12.761719 163.136719 14.738281 165.113281 17.136719 165.113281 L 109.976562 165.113281 L 109.976562 165 C 110.085938 165 110.1875 165.0625 110.300781 165.0625 C 111.460938 165.0625 112.578125 164.601562 113.398438 163.777344 C 114.21875 162.953125 114.679688 161.835938 114.675781 160.675781 C 114.671875 158.359375 112.851562 156.457031 110.539062 156.351562 L 125.238281 156.351562 C 122.929688 156.464844 121.117188 158.363281 121.113281 160.675781 C 121.109375 161.835938 121.570312 162.953125 122.390625 163.777344 C 123.210938 164.601562 124.324219 165.0625 125.488281 165.0625 C 125.625 165.0625 125.738281 165 125.863281 164.988281 L 125.863281 165.113281 L 141.226562 165.113281 L 141.226562 165.050781 L 141.261719 165.0625 C 142.425781 165.0625 143.539062 164.601562 144.359375 163.777344 C 145.179688 162.953125 145.640625 161.835938 145.636719 160.675781 C 145.632812 158.363281 143.820312 156.464844 141.511719 156.351562 L 170.011719 156.351562 C 167.707031 156.464844 165.890625 158.363281 165.886719 160.675781 C 165.882812 161.835938 166.34375 162.953125 167.164062 163.777344 C 167.984375 164.601562 169.101562 165.0625 170.261719 165.0625 C 170.414062 165.0625 170.523438 164.988281 170.675781 164.976562 L 183.398438 165.113281 C 185.800781 165.113281 187.773438 163.148438 187.773438 160.738281 L 187.773438 131.976562 C 187.753906 129.5625 185.800781 127.613281 183.386719 127.601562 Z M 109.976562 156.363281 L 110.050781 156.351562 Z M 125.863281 156.375 L 125.726562 156.351562 L 125.863281 156.351562 Z M 170.664062 156.386719 C 170.601562 156.375 170.550781 156.351562 170.488281 156.351562 L 170.664062 156.351562 Z M 170.664062 156.386719 "/>
<path style=" stroke:none;fill-rule:nonzero;fill:rgb(97.254902%,59.215686%,13.333333%);fill-opacity:1;" d="M 21.511719 136.351562 L 179 136.351562 L 179 156.351562 L 21.511719 156.351562 Z M 21.511719 136.351562 "/>
<path style=" stroke:none;fill-rule:nonzero;fill:rgb(87.058824%,16.470588%,16.862745%);fill-opacity:1;" d="M 96.5 116.300781 L 121.136719 116.300781 L 121.136719 127.601562 L 96.5 127.601562 Z M 96.5 116.300781 "/>
<path style=" stroke:none;fill-rule:nonzero;fill:rgb(16.862745%,41.568627%,87.058824%);fill-opacity:1;" d="M 145.625 116.300781 L 170.25 116.300781 L 170.25 127.601562 L 145.625 127.601562 Z M 145.625 116.300781 "/>
<path style=" stroke:none;fill-rule:nonzero;fill:rgb(100%,100%,100%);fill-opacity:1;" d="M 51.726562 127.613281 L 48.351562 78.636719 L 59.101562 78.636719 L 55.726562 127.613281 Z M 51.726562 127.613281 "/>
<path style=" stroke:none;fill-rule:nonzero;fill:rgb(0%,0%,0%);fill-opacity:1;" d="M 31.273438 61.0625 C 31.273438 73.460938 41.328125 83.511719 53.726562 83.511719 C 66.125 83.511719 76.175781 73.460938 76.175781 61.0625 C 76.175781 48.664062 66.125 38.613281 53.726562 38.613281 C 41.328125 38.613281 31.273438 48.664062 31.273438 61.0625 Z M 31.273438 61.0625 "/>
<path style=" stroke:none;fill-rule:nonzero;fill:rgb(87.058824%,16.470588%,16.862745%);fill-opacity:1;" d="M 40.023438 61.0625 C 40.023438 68.628906 46.160156 74.761719 53.726562 74.761719 C 61.292969 74.761719 67.425781 68.628906 67.425781 61.0625 C 67.425781 53.496094 61.292969 47.363281 53.726562 47.363281 C 46.160156 47.363281 40.023438 53.496094 40.023438 61.0625 Z M 40.023438 61.0625 "/>
</g>
</svg>
