<?xml version="1.0" encoding="UTF-8"?>
<svg xmlns="http://www.w3.org/2000/svg" xmlns:xlink="http://www.w3.org/1999/xlink" width="200px" height="200px" viewBox="0 0 200 200" version="1.1">
<g id="surface1">
<path style=" stroke:none;fill-rule:nonzero;fill:rgb(100%,79.215686%,37.254902%);fill-opacity:1;" d="M 93 128.417969 C 93 149.609375 110.179688 166.792969 131.375 166.792969 C 152.570312 166.792969 169.75 149.609375 169.75 128.417969 C 169.75 107.222656 152.570312 90.042969 131.375 90.042969 C 110.179688 90.042969 93 107.222656 93 128.417969 Z M 93 128.417969 "/>
<path style=" stroke:none;fill-rule:nonzero;fill:rgb(100%,79.215686%,37.254902%);fill-opacity:1;" d="M 43.332031 35.875 C 43.332031 40.867188 47.382812 44.917969 52.375 44.917969 C 57.367188 44.917969 61.417969 40.867188 61.417969 35.875 C 61.417969 30.882812 57.367188 26.832031 52.375 26.832031 C 47.382812 26.832031 43.332031 30.882812 43.332031 35.875 Z M 43.332031 35.875 "/>
<path style=" stroke:none;fill-rule:nonzero;fill:rgb(36.078431%,10.980392%,96.862745%);fill-opacity:1;" d="M 110.5 179.417969 L 87.5 179.417969 C 81.824219 179.394531 77.230469 174.800781 77.207031 169.125 L 77.207031 160.042969 C 70.441406 157.550781 64.15625 153.914062 58.625 149.292969 L 50.75 153.832031 C 45.84375 156.566406 39.648438 154.863281 36.832031 150 L 25.375 130.25 C 24.007812 127.886719 23.636719 125.078125 24.347656 122.441406 C 25.0625 119.804688 26.792969 117.5625 29.167969 116.207031 L 37.082031 111.667969 C 35.75 104.574219 35.75 97.300781 37.082031 90.207031 L 29.167969 85.667969 C 24.261719 82.820312 22.582031 76.539062 25.417969 71.625 L 36.875 51.792969 C 39.707031 46.871094 45.992188 45.171875 50.917969 48 L 58.792969 52.582031 C 64.289062 47.890625 70.5625 44.195312 77.332031 41.667969 L 77.332031 32.75 C 77.355469 27.125 81.875 22.550781 87.5 22.457031 L 110.375 22.457031 C 113.128906 22.425781 115.785156 23.492188 117.746094 25.425781 C 119.710938 27.359375 120.824219 29.996094 120.832031 32.75 L 120.832031 41.667969 C 127.605469 44.140625 133.894531 47.777344 139.417969 52.417969 L 147.292969 47.832031 C 152.21875 45.03125 158.484375 46.722656 161.332031 51.625 L 172.792969 71.457031 C 174.167969 73.8125 174.542969 76.617188 173.832031 79.25 C 173.125 81.882812 171.402344 84.132812 169.042969 85.5 L 161.125 90.042969 C 162.402344 97.136719 162.402344 104.402344 161.125 111.5 L 169.042969 116.042969 C 171.40625 117.402344 173.132812 119.648438 173.835938 122.28125 C 174.539062 124.917969 174.164062 127.726562 172.792969 130.082031 L 161.292969 150 C 159.933594 152.363281 157.6875 154.089844 155.050781 154.792969 C 152.414062 155.496094 149.609375 155.121094 147.25 153.75 L 139.375 149.207031 C 133.863281 153.855469 127.589844 157.523438 120.832031 160.042969 L 120.832031 169.125 C 120.808594 174.816406 116.191406 179.417969 110.5 179.417969 Z M 89.667969 166.917969 L 108.332031 166.917969 L 108.332031 158.332031 C 108.359375 153.921875 111.191406 150.019531 115.375 148.625 C 121.601562 146.472656 127.359375 143.148438 132.332031 138.832031 C 135.640625 135.902344 140.449219 135.398438 144.292969 137.582031 L 151.625 141.75 L 160.832031 125.75 L 153.5 121.582031 C 149.671875 119.351562 147.695312 114.925781 148.582031 110.582031 C 149.917969 104.152344 149.917969 97.515625 148.582031 91.082031 C 147.707031 86.742188 149.683594 82.324219 153.5 80.082031 L 160.832031 75.917969 L 151.625 59.957031 L 144.292969 64.125 C 140.457031 66.320312 135.652344 65.835938 132.332031 62.917969 C 127.382812 58.566406 121.617188 55.238281 115.375 53.125 C 111.191406 51.730469 108.359375 47.828125 108.332031 43.417969 L 108.332031 35.082031 L 89.832031 35.082031 L 89.832031 43.417969 C 89.828125 47.84375 86.992188 51.769531 82.792969 53.167969 C 76.542969 55.265625 70.777344 58.59375 65.832031 62.957031 C 62.515625 65.875 57.710938 66.363281 53.875 64.167969 L 46.542969 60 L 37.5 75.917969 L 44.875 80.082031 C 48.699219 82.320312 50.660156 86.75 49.75 91.082031 C 48.417969 97.515625 48.417969 104.152344 49.75 110.582031 C 50.660156 114.917969 48.699219 119.347656 44.875 121.582031 L 37.5 125.917969 L 46.75 141.917969 L 54.082031 137.75 C 57.925781 135.566406 62.734375 136.070312 66.042969 139 C 71.003906 143.332031 76.765625 146.660156 83 148.792969 C 87.046875 150.234375 89.769531 154.039062 89.832031 158.332031 Z M 37.5 113.167969 Z M 159.917969 110.875 Z M 37.5 88.707031 Z M 37.5 88.707031 "/>
<path style=" stroke:none;fill-rule:nonzero;fill:rgb(36.078431%,10.980392%,96.862745%);fill-opacity:1;" d="M 99.042969 132.957031 C 81.355469 132.933594 67.023438 118.601562 67 100.917969 L 79.5 100.917969 C 79.5 111.710938 88.25 120.457031 99.042969 120.457031 C 109.835938 120.457031 118.582031 111.710938 118.582031 100.917969 C 118.582031 90.125 109.835938 81.375 99.042969 81.375 C 96.296875 81.371094 93.585938 81.953125 91.082031 83.082031 L 85.957031 71.667969 C 97.886719 66.332031 111.859375 68.777344 121.269531 77.84375 C 130.679688 86.910156 133.644531 100.78125 128.753906 112.902344 C 123.867188 125.019531 112.109375 132.957031 99.042969 132.957031 Z M 99.042969 132.957031 "/>
</g>
</svg>
