<?xml version="1.0" encoding="UTF-8"?>
<svg xmlns="http://www.w3.org/2000/svg" xmlns:xlink="http://www.w3.org/1999/xlink" width="200px" height="200px" viewBox="0 0 200 200" version="1.1">
<defs>
<filter id="alpha" filterUnits="objectBoundingBox" x="0%" y="0%" width="100%" height="100%">
  <feColorMatrix type="matrix" in="SourceGraphic" values="0 0 0 0 1 0 0 0 0 1 0 0 0 0 1 0 0 0 1 0"/>
</filter>
<mask id="mask0">
  <g filter="url(#alpha)">
<rect x="0" y="0" width="200" height="200" style="fill:rgb(0%,0%,0%);fill-opacity:0.25098;stroke:none;"/>
  </g>
</mask>
<clipPath id="clip1">
  <rect x="0" y="0" width="200" height="200"/>
</clipPath>
<g id="surface5" clip-path="url(#clip1)">
<path style=" stroke:none;fill-rule:nonzero;fill:rgb(100%,100%,100%);fill-opacity:1;" d="M 11.179688 143.570312 L 131.421875 23.121094 L 153.71875 23.121094 L 41.675781 143.570312 L 27.011719 144.363281 Z M 3.730469 131.726562 L 111.605469 24.574219 L 17.3125 23.121094 C 17.3125 23.121094 3.730469 25.625 3.730469 37.71875 Z M 3.730469 131.726562 "/>
</g>
<mask id="mask1">
  <g filter="url(#alpha)">
<rect x="0" y="0" width="200" height="200" style="fill:rgb(0%,0%,0%);fill-opacity:0.14902;stroke:none;"/>
  </g>
</mask>
<clipPath id="clip2">
  <rect x="0" y="0" width="200" height="200"/>
</clipPath>
<g id="surface8" clip-path="url(#clip2)">
<path style=" stroke:none;fill-rule:nonzero;fill:rgb(43.137255%,43.137255%,58.823529%);fill-opacity:1;" d="M 3.730469 134.863281 L 193.222656 134.863281 L 193.222656 140.589844 L 3.730469 140.589844 Z M 74.066406 164.539062 L 123.632812 164.539062 L 123.632812 173.859375 L 74.066406 173.859375 Z M 181.210938 156.46875 L 18.878906 156.46875 C 11.410156 156.46875 5.300781 159.175781 5.300781 153.527344 L 5.300781 153.050781 C 5.300781 158.703125 11.40625 163.324219 18.878906 163.324219 L 181.210938 163.324219 C 188.675781 163.324219 194.792969 158.703125 194.792969 153.050781 L 194.792969 153.527344 C 194.789062 159.175781 188.675781 156.46875 181.210938 156.46875 Z M 127.460938 68.300781 C 128.972656 72.449219 129.746094 76.871094 129.746094 81.328125 C 129.746094 101.117188 114.824219 117.15625 96.417969 117.15625 C 79.332031 117.15625 65.257812 103.328125 63.328125 85.519531 C 63.171875 86.953125 63.09375 88.398438 63.089844 89.839844 C 63.089844 110.800781 78.898438 127.792969 98.398438 127.792969 C 117.898438 127.792969 133.703125 110.800781 133.703125 89.839844 C 133.714844 82.144531 131.535156 74.628906 127.460938 68.300781 Z M 127.460938 68.300781 "/>
</g>
<mask id="mask2">
  <g filter="url(#alpha)">
<rect x="0" y="0" width="200" height="200" style="fill:rgb(0%,0%,0%);fill-opacity:0.14902;stroke:none;"/>
  </g>
</mask>
<clipPath id="clip3">
  <rect x="0" y="0" width="200" height="200"/>
</clipPath>
<g id="surface11" clip-path="url(#clip3)">
<path style=" stroke:none;fill-rule:nonzero;fill:rgb(43.137255%,43.137255%,58.823529%);fill-opacity:1;" d="M 126.800781 61.207031 C 128.3125 65.355469 129.085938 69.777344 129.085938 74.234375 C 129.085938 94.019531 114.164062 110.0625 95.757812 110.0625 C 78.671875 110.0625 64.597656 96.234375 62.664062 78.425781 C 62.511719 79.859375 62.433594 81.304688 62.429688 82.75 C 62.429688 103.707031 78.238281 120.703125 97.738281 120.703125 C 117.234375 120.703125 133.042969 103.707031 133.042969 82.75 C 133.054688 75.050781 130.875 67.535156 126.800781 61.207031 Z M 126.800781 61.207031 "/>
</g>
</defs>
<g id="surface1">
<path style=" stroke:none;fill-rule:nonzero;fill:rgb(43.137255%,43.137255%,58.823529%);fill-opacity:1;" d="M 138.257812 192.726562 L 58.945312 192.726562 C 57.214844 192.726562 55.8125 191.21875 55.8125 189.359375 C 55.8125 187.5 57.214844 185.992188 58.945312 185.992188 L 138.257812 185.992188 C 139.988281 185.992188 141.390625 187.5 141.390625 189.359375 C 141.390625 191.21875 139.988281 192.726562 138.257812 192.726562 Z M 138.257812 192.726562 "/>
<path style=" stroke:none;fill-rule:nonzero;fill:rgb(80.784314%,80.784314%,85.882353%);fill-opacity:1;" d="M 72.476562 163.324219 L 123.160156 163.324219 L 123.160156 189.359375 L 72.476562 189.359375 Z M 72.476562 163.324219 "/>
<path style=" stroke:none;fill-rule:nonzero;fill:rgb(43.137255%,43.137255%,58.823529%);fill-opacity:1;" d="M 126.292969 192.726562 L 69.34375 192.726562 L 69.34375 159.957031 L 126.292969 159.957031 Z M 75.609375 185.992188 L 120.027344 185.992188 L 120.027344 166.691406 L 75.609375 166.691406 Z M 75.609375 185.992188 "/>
<path style=" stroke:none;fill-rule:nonzero;fill:rgb(67.45098%,81.176471%,90.196078%);fill-opacity:1;" d="M 3.730469 144.832031 L 3.730469 37.71875 C 3.730469 29.691406 9.84375 23.121094 17.3125 23.121094 L 179.640625 23.121094 C 187.113281 23.121094 193.222656 29.691406 193.222656 37.71875 L 193.222656 144.832031 "/>
<use xlink:href="#surface5" mask="url(#mask0)"/>
<path style=" stroke:none;fill-rule:nonzero;fill:rgb(94.117647%,94.117647%,100%);fill-opacity:1;" d="M 193.222656 143.570312 L 193.222656 149.941406 C 193.222656 157.96875 187.109375 164.539062 179.640625 164.539062 L 17.3125 164.539062 C 9.84375 164.539062 3.734375 157.96875 3.734375 149.941406 L 3.734375 143.570312 Z M 193.222656 143.570312 "/>
<path style=" stroke:none;fill-rule:nonzero;fill:rgb(43.137255%,43.137255%,58.823529%);fill-opacity:1;" d="M 196.355469 144.832031 L 190.089844 144.832031 L 190.089844 37.71875 C 190.089844 28.226562 186.570312 26.488281 179.640625 26.488281 L 17.3125 26.488281 C 10.382812 26.488281 6.863281 28.226562 6.863281 37.71875 L 6.863281 144.832031 L 0.601562 144.832031 L 0.601562 37.71875 C 0.601562 21.617188 10.136719 19.753906 17.3125 19.753906 L 179.640625 19.753906 C 186.816406 19.753906 196.355469 21.617188 196.355469 37.71875 Z M 196.355469 144.832031 "/>
<use xlink:href="#surface8" mask="url(#mask1)"/>
<path style=" stroke:none;fill-rule:nonzero;fill:rgb(100%,67.843137%,73.333333%);fill-opacity:1;" d="M 61.773438 82.746094 C 61.773438 103.707031 77.578125 120.703125 97.078125 120.703125 C 116.578125 120.703125 132.382812 103.707031 132.382812 82.746094 C 132.382812 61.785156 116.578125 44.792969 97.078125 44.792969 C 77.578125 44.792969 61.773438 61.785156 61.773438 82.746094 Z M 61.773438 82.746094 "/>
<path style=" stroke:none;fill-rule:nonzero;fill:rgb(100%,81.176471%,84.313725%);fill-opacity:1;" d="M 67.050781 87.894531 C 67.050781 69.117188 81.210938 53.894531 98.679688 53.894531 C 116.148438 53.894531 130.308594 69.117188 130.308594 87.894531 C 130.308594 90.78125 129.96875 93.65625 129.296875 96.449219 C 130.902344 92.042969 131.726562 87.355469 131.726562 82.625 C 131.726562 61.664062 115.917969 44.671875 96.417969 44.671875 C 76.921875 44.671875 61.113281 61.664062 61.113281 82.625 C 61.113281 99.242188 71.050781 113.355469 84.882812 118.496094 C 74.328125 112.988281 67.050781 101.355469 67.050781 87.894531 Z M 67.050781 87.894531 "/>
<path style=" stroke:none;fill-rule:nonzero;fill:rgb(43.137255%,43.137255%,58.823529%);fill-opacity:1;" d="M 97.078125 124.070312 C 75.882812 124.070312 58.640625 105.53125 58.640625 82.746094 C 58.640625 59.964844 75.882812 41.425781 97.078125 41.425781 C 118.273438 41.425781 135.515625 59.964844 135.515625 82.746094 C 135.515625 105.53125 118.273438 124.070312 97.078125 124.070312 Z M 97.078125 48.160156 C 79.335938 48.160156 64.90625 63.675781 64.90625 82.746094 C 64.90625 101.816406 79.335938 117.335938 97.078125 117.335938 C 114.820312 117.335938 129.25 101.816406 129.25 82.746094 C 129.25 63.675781 114.820312 48.160156 97.078125 48.160156 Z M 97.078125 48.160156 "/>
<use xlink:href="#surface11" mask="url(#mask2)"/>
<path style=" stroke:none;fill-rule:nonzero;fill:rgb(100%,100%,100%);fill-opacity:1;" d="M 88.335938 66.253906 L 112.257812 83.953125 L 88.335938 99.726562 Z M 88.335938 66.253906 "/>
<path style=" stroke:none;fill-rule:nonzero;fill:rgb(43.137255%,43.137255%,58.823529%);fill-opacity:1;" d="M 88.335938 103.09375 C 87.503906 103.09375 86.707031 102.742188 86.117188 102.109375 C 85.53125 101.476562 85.203125 100.621094 85.203125 99.726562 L 85.203125 66.253906 C 85.203125 65.003906 85.847656 63.855469 86.878906 63.273438 C 87.90625 62.691406 89.152344 62.773438 90.109375 63.480469 L 114.03125 81.179688 C 114.90625 81.828125 115.414062 82.902344 115.386719 84.042969 C 115.359375 85.183594 114.796875 86.230469 113.894531 86.824219 L 89.972656 102.597656 C 89.480469 102.921875 88.914062 103.09375 88.335938 103.09375 Z M 91.464844 72.660156 L 91.464844 93.710938 L 106.511719 83.792969 Z M 91.464844 72.660156 "/>
<path style=" stroke:none;fill-rule:nonzero;fill:rgb(43.137255%,43.137255%,58.823529%);fill-opacity:1;" d="M 181.992188 167.90625 L 14.179688 167.90625 C 5.804688 167.90625 0.601562 161.023438 0.601562 149.941406 L 0.601562 140.203125 L 196.355469 140.203125 L 196.355469 149.941406 C 196.355469 160.6875 190.582031 167.90625 181.992188 167.90625 Z M 6.867188 146.9375 L 6.867188 149.941406 C 6.867188 155.066406 8.136719 161.171875 14.179688 161.171875 L 181.992188 161.171875 C 189.507812 161.171875 190.09375 152.574219 190.09375 149.941406 L 190.09375 146.9375 Z M 6.867188 146.9375 "/>
</g>
</svg>
